HIERARCHY
ROOT hip
{
	OFFSET 0.000000 0.000000 0.000000
	CHANNELS 6 Xposition Yposition Zposition Zrotation Yrotation Xrotation 
	JOINT lhipjoint
	{
		OFFSET 0.000000 0.000000 0.000000
		CHANNELS 3 Zrotation Yrotation Xrotation
		JOINT lfemur
		{
			OFFSET 1.363060 -1.794630 0.839290
			CHANNELS 3 Zrotation Yrotation Xrotation
			JOINT ltibia
			{
				OFFSET 2.448110 -6.726130 0.000000
				CHANNELS 3 Zrotation Yrotation Xrotation
				JOINT lfoot
				{
					OFFSET 2.562200 -7.039590 0.000000
					CHANNELS 3 Zrotation Yrotation Xrotation
					JOINT ltoes
					{
						OFFSET 0.157640 -0.433110 2.322550
						CHANNELS 3 Zrotation Yrotation Xrotation
						End Site
						{
							OFFSET 0.000000 0.000000 0.000000
						}
					}
				}
			}
		}
	}
	JOINT rhipjoint
	{
		OFFSET 0.000000 0.000000 0.000000
		CHANNELS 3 Zrotation Yrotation Xrotation
		JOINT rfemur
		{
			OFFSET -1.305520 -1.794630 0.839290
			CHANNELS 3 Zrotation Yrotation Xrotation
			JOINT rtibia
			{
				OFFSET -2.542530 -6.985550 0.000000
				CHANNELS 3 Zrotation Yrotation Xrotation
				JOINT rfoot
				{
					OFFSET -2.568260 -7.056230 0.000000
					CHANNELS 3 Zrotation Yrotation Xrotation
					JOINT rtoes
					{
						OFFSET -0.164730 -0.452590 2.363150
						CHANNELS 3 Zrotation Yrotation Xrotation
						End Site
						{
							OFFSET 0.000000 0.000000 0.000000
						}
					}
				}
			}
		}
	}
	JOINT lowerback
	{
		OFFSET 0.000000 0.000000 0.000000
		CHANNELS 3 Zrotation Yrotation Xrotation
		JOINT upperback
		{
			OFFSET 0.028270 2.035590 -0.193380
			CHANNELS 3 Zrotation Yrotation Xrotation
			JOINT thorax
			{
				OFFSET 0.056720 2.048850 -0.042750
				CHANNELS 3 Zrotation Yrotation Xrotation
				JOINT lowerneck
				{
					OFFSET 0.000000 0.000000 0.000000
					CHANNELS 3 Zrotation Yrotation Xrotation
					JOINT upperneck
					{
						OFFSET -0.054170 1.746240 0.172020
						CHANNELS 3 Zrotation Yrotation Xrotation
						JOINT head
						{
							OFFSET 0.104070 1.761360 -0.123970
							CHANNELS 3 Zrotation Yrotation Xrotation
							End Site
							{
								OFFSET 0.000000 0.000000 0.000000
							}
						}
					}
				}
				JOINT lclavicle
				{
					OFFSET 0.000000 0.000000 0.000000
					CHANNELS 3 Zrotation Yrotation Xrotation
					JOINT lhumerus
					{
						OFFSET 3.362410 1.200890 -0.311210
						CHANNELS 3 Zrotation Yrotation Xrotation
						JOINT lradius
						{
							OFFSET 4.983000 -0.000000 -0.000000
							CHANNELS 3 Zrotation Yrotation Xrotation
							JOINT lwrist
							{
								OFFSET 3.483560 -0.000000 -0.000000
								CHANNELS 3 Zrotation Yrotation Xrotation
								JOINT lhand
								{
									OFFSET 0.000000 0.000000 0.000000
									CHANNELS 3 Zrotation Yrotation Xrotation
									JOINT lfingers
									{
										OFFSET 0.715260 -0.000000 -0.000000
										CHANNELS 3 Zrotation Yrotation Xrotation
										End Site
										{
											OFFSET 0.000000 0.000000 0.000000
										}
									}
								}
								JOINT lthumb
								{
									OFFSET 0.000000 0.000000 0.000000
									CHANNELS 3 Zrotation Yrotation Xrotation
									End Site
									{
										OFFSET 0.000000 0.000000 0.000000
									}
								}
							}
						}
					}
				}
				JOINT rclavicle
				{
					OFFSET 0.000000 0.000000 0.000000
					CHANNELS 3 Zrotation Yrotation Xrotation
					JOINT rhumerus
					{
						OFFSET -3.136600 1.374050 -0.404650
						CHANNELS 3 Zrotation Yrotation Xrotation
						JOINT rradius
						{
							OFFSET -5.241900 -0.000000 -0.000000
							CHANNELS 3 Zrotation Yrotation Xrotation
							JOINT rwrist
							{
								OFFSET -3.444170 -0.000000 -0.000000
								CHANNELS 3 Zrotation Yrotation Xrotation
								JOINT rhand
								{
									OFFSET 0.000000 0.000000 0.000000
									CHANNELS 3 Zrotation Yrotation Xrotation
									JOINT rfingers
									{
										OFFSET -0.622530 -0.000000 -0.000000
										CHANNELS 3 Zrotation Yrotation Xrotation
										End Site
										{
											OFFSET 0.000000 0.000000 0.000000
										}
									}
								}
								JOINT rthumb
								{
									OFFSET 0.000000 0.000000 0.000000
									CHANNELS 3 Zrotation Yrotation Xrotation
									End Site
									{
										OFFSET 0.000000 0.000000 0.000000
									}
								}
							}
						}
					}
				}
			}
		}
	}
}
MOTION
Frames: 8
Frame Time: 0.008333
0.391321 1.802354 0.686196 179.275135 17.272246 109.307696 -1.082598 1.215852 -0.257260 -2.037632 -11.714038 -54.627952 11.878155 17.122109 64.644965 0.621385 4.720824 20.415112 1.563400 -7.890300 -22.381300 -1.020576 -1.934924 0.385208 16.097342 8.744026 -69.150247 -22.326162 -20.438279 95.271518 0.555203 -13.424629 21.267559 -0.071700 -1.727500 4.753300 0.771479 -0.701309 60.407502 -0.188364 5.577264 -1.873321 -1.442521 6.737342 -5.249660 -0.088791 -4.639812 1.070189 -3.692379 -4.295345 0.245616 1.443300 -1.511200 -1.268100 -1.414307 3.626425 1.108221 -48.523136 -38.909496 31.912060 22.619476 -42.035535 -7.532023 -0.250474 -0.234132 145.702683 29.480380 7.693737 4.250400 -7.125000 0.000000 0.000000 2.005900 38.726800 -0.310100 5.829205 -0.391184 2.178423 -58.997313 37.843882 -95.049839 -25.400720 45.249882 -8.749527 -0.073203 -2.147042 -140.983556 -11.203110 33.854603 -5.319800 7.125000 0.000000 0.000000 12.335300 2.031000 13.067200 
0.414178 1.801022 0.703313 179.215029 17.019915 109.263715 -1.082249 1.220114 -0.257483 -2.192451 -11.776724 -54.515547 11.878964 17.109864 64.647617 0.621643 4.680901 20.386462 1.571400 -7.909600 -22.439800 -1.008734 -1.935183 0.391084 15.962299 8.672495 -69.091291 -22.298792 -20.447440 95.176417 0.541228 -13.461279 21.399574 -0.081700 -1.843500 5.073400 0.523042 -0.403303 60.542129 -0.226278 5.842799 -1.877118 -1.448979 6.875422 -5.314941 0.051386 -4.818315 1.123313 -3.645489 -4.511709 0.166563 1.435900 -1.608100 -1.310100 -1.440086 3.661122 1.132105 -49.064137 -39.023238 32.877634 23.740901 -43.062024 -8.083338 -0.221265 -0.251878 145.807973 29.675962 7.909417 4.385700 -7.125000 0.000000 0.000000 2.182500 38.946400 -0.325700 5.967073 -0.438695 2.080524 -60.056900 37.527432 -94.025964 -22.938824 42.924440 -7.371714 -0.041492 -2.340730 -140.526888 -15.225538 31.137173 -6.868300 7.125000 0.000000 0.000000 9.926400 -0.177400 10.047800 
0.434266 1.800304 0.721454 179.172247 16.800772 109.213894 -1.086457 1.221783 -0.257069 -2.316456 -11.841383 -54.382315 11.884442 17.100036 64.664847 0.621601 4.643019 20.356884 1.602300 -7.983300 -22.663400 -0.999524 -1.939056 0.398260 15.876761 8.590651 -68.998740 -22.259684 -20.455777 95.050739 0.516398 -13.469229 21.573200 -0.089900 -1.933900 5.322900 0.336172 -0.142817 60.708514 -0.263023 6.097893 -1.881811 -1.504035 7.019874 -5.369690 0.216745 -4.974622 1.106836 -3.619118 -4.703998 0.130857 1.417900 -1.697000 -1.317800 -1.452019 3.654346 1.150509 -49.534806 -39.100354 33.791365 24.924907 -44.096724 -8.680650 -0.189582 -0.269622 145.876785 29.751120 8.080924 4.475600 -7.125000 0.000000 0.000000 2.258000 39.104700 -0.328200 6.042796 -0.431227 1.999557 -60.174545 36.845273 -90.799803 -21.602879 41.562657 -6.580747 0.071365 -2.532041 -140.766072 -19.521432 28.577249 -8.280100 7.125000 0.000000 0.000000 7.284700 -2.159500 7.063000 
0.450460 1.799689 0.737033 179.132162 16.560512 109.174812 -1.094761 1.221252 -0.257002 -2.469711 -11.943255 -54.246624 11.899864 17.089064 64.703400 0.615975 4.663168 20.347117 1.625000 -8.037000 -22.826600 -0.994170 -1.946593 0.408680 15.737128 8.484526 -68.942693 -22.224739 -20.468656 94.935752 0.481618 -13.461202 21.794236 -0.109100 -2.130000 5.865000 0.204076 0.080823 60.892222 -0.303336 6.324951 -1.892556 -1.618163 7.157657 -5.452946 0.332756 -5.151706 1.146683 -3.577846 -4.909603 0.063843 1.431100 -1.787500 -1.356500 -1.457103 3.620071 1.161503 -49.970132 -39.088064 34.731205 26.182728 -45.146375 -9.329360 -0.155524 -0.286448 145.819105 29.695126 8.196573 4.511100 -7.125000 0.000000 0.000000 2.223100 39.188600 -0.318500 6.051876 -0.362623 1.954293 -59.552312 35.819541 -85.700645 -21.203631 41.120585 -6.228274 0.269064 -2.687318 -141.571702 -23.960027 25.942168 -9.443900 7.125000 0.000000 0.000000 4.461200 -4.157800 4.138800 
0.463375 1.800304 0.749230 179.090557 16.361032 109.137444 -1.103703 1.218125 -0.260041 -2.579345 -12.057357 -54.100189 11.926386 17.083484 64.776599 0.607882 4.693735 20.325921 1.627400 -8.042600 -22.843700 -0.988648 -1.955400 0.417157 15.639499 8.376600 -68.864118 -22.184862 -20.480421 94.812859 0.440672 -13.417958 22.017854 -0.118100 -2.215800 6.102300 0.130876 0.246304 61.045743 -0.343977 6.515839 -1.893133 -1.753669 7.291146 -5.462689 0.351749 -5.297366 1.075119 -3.507956 -5.078686 0.034024 1.483200 -1.859500 -1.347200 -1.468326 3.580842 1.167393 -50.344847 -39.041752 35.508026 27.446273 -46.163608 -10.001916 -0.121231 -0.302181 145.689162 29.590905 8.311636 4.538100 -7.125000 0.000000 0.000000 2.146500 39.269300 -0.303300 6.038974 -0.281924 1.927518 -58.940231 34.742697 -80.471244 -21.222482 41.136389 -6.072898 0.511077 -2.768244 -142.077229 -27.980843 22.763813 -9.903300 7.125000 0.000000 0.000000 1.745000 -6.780100 1.527500 
0.475161 1.800407 0.758147 179.061697 16.162247 109.118483 -1.112105 1.213413 -0.264717 -2.671692 -12.215221 -53.976321 11.963034 17.079026 64.880885 0.600743 4.722565 20.311754 1.637700 -8.066700 -22.917000 -0.983609 -1.965825 0.427317 15.522583 8.269481 -68.820852 -22.150147 -20.494031 94.701199 0.397619 -13.388203 22.267176 -0.131500 -2.337400 6.439100 0.105289 0.374884 61.168467 -0.387981 6.672098 -1.895448 -1.931467 7.409628 -5.479054 0.331859 -5.445010 1.053003 -3.419314 -5.247304 0.004854 1.557800 -1.930200 -1.349100 -1.487775 3.544927 1.165307 -50.630967 -38.936741 36.302125 28.724881 -47.147348 -10.693774 -0.085234 -0.315960 145.357201 29.370259 8.391303 4.525000 -7.125000 0.000000 0.000000 1.970500 39.302100 -0.276800 6.015451 -0.197870 1.920627 -58.457385 33.777979 -75.756036 -21.393070 41.341909 -6.000647 0.759250 -2.771578 -142.077548 -31.355983 19.032221 -9.472700 7.125000 0.000000 0.000000 -0.717600 -10.174500 -0.579600 
0.486436 1.800612 0.763887 179.038793 15.985822 109.113831 -1.117483 1.209058 -0.270675 -2.740235 -12.384415 -53.871800 12.005983 17.078204 65.014042 0.592497 4.695681 20.224082 1.672300 -8.147200 -23.162100 -0.977459 -1.974304 0.436084 15.427382 8.160998 -68.804646 -22.123712 -20.507554 94.612851 0.354337 -13.366525 22.522827 -0.140300 -2.413900 6.651100 0.103719 0.478415 61.250788 -0.429391 6.810397 -1.894289 -2.111392 7.516372 -5.463341 0.298111 -5.580764 1.015409 -3.342200 -5.403698 -0.025145 1.625100 -1.995600 -1.348700 -1.510788 3.535147 1.151708 -50.914381 -38.788111 37.012107 29.981104 -48.084528 -11.390194 -0.048333 -0.329354 144.923477 29.186424 8.518846 4.544500 -7.125000 0.000000 0.000000 1.824800 39.392200 -0.252300 6.007296 -0.150876 1.944421 -58.336161 33.253796 -72.569104 -21.458256 41.484923 -5.910383 0.978608 -2.725897 -141.100761 -34.016588 14.865742 -8.132700 7.125000 0.000000 0.000000 -2.836100 -14.308300 -2.049800 
0.496173 1.802457 0.769421 179.010788 15.810184 109.105159 -1.125185 1.205281 -0.277140 -2.805160 -12.577271 -53.736916 12.050771 17.076222 65.150039 0.579173 4.685613 20.112622 1.680100 -8.165300 -23.217200 -0.970683 -1.982581 0.444098 15.323861 8.052912 -68.765165 -22.098569 -20.520151 94.530782 0.313052 -13.333327 22.753816 -0.147900 -2.478500 6.830000 0.095960 0.566453 61.333509 -0.468959 6.928622 -1.891451 -2.281831 7.615956 -5.430162 0.201005 -5.700230 0.948944 -3.245902 -5.541832 -0.036691 1.718000 -2.052000 -1.328800 -1.535198 3.517879 1.131357 -51.102184 -38.588029 37.664767 31.248334 -48.989040 -12.105029 -0.008061 -0.341528 144.284752 28.925468 8.660195 4.556600 -7.125000 0.000000 0.000000 1.612600 39.490800 -0.219000 5.977409 -0.094974 1.981634 -58.036899 32.732185 -69.428447 -21.803048 41.920626 -5.967921 1.190634 -2.630261 -140.682169 -36.147033 10.933021 -6.364100 7.125000 0.000000 0.000000 -4.650100 -18.437800 -2.950400 
